<mxfile host="app.diagrams.net" agent="Mozilla/5.0 (Windows NT 10.0; Win64; x64) AppleWebKit/537.36 (KHTML, like Gecko) Chrome/135.0.0.0 Safari/537.36" version="27.1.4">
  <diagram name="Page-1" id="VPUY-I-JK0K6vdLJWgiv">
    <mxGraphModel dx="1042" dy="631" grid="1" gridSize="10" guides="1" tooltips="1" connect="1" arrows="1" fold="1" page="1" pageScale="1" pageWidth="850" pageHeight="1100" math="0" shadow="0">
      <root>
        <mxCell id="0" />
        <mxCell id="1" parent="0" />
        <mxCell id="vY-BnCAjOBaIAYeel5sk-5" style="edgeStyle=orthogonalEdgeStyle;rounded=0;orthogonalLoop=1;jettySize=auto;html=1;exitX=0.5;exitY=1;exitDx=0;exitDy=0;entryX=0.5;entryY=0;entryDx=0;entryDy=0;" edge="1" parent="1" source="vY-BnCAjOBaIAYeel5sk-1" target="vY-BnCAjOBaIAYeel5sk-3">
          <mxGeometry relative="1" as="geometry" />
        </mxCell>
        <mxCell id="vY-BnCAjOBaIAYeel5sk-1" value="&lt;div style=&quot;color: rgb(204, 204, 204); background-color: rgb(31, 31, 31); font-family: Consolas, &amp;quot;Courier New&amp;quot;, monospace; font-size: 14px; line-height: 19px; white-space: pre;&quot;&gt;&lt;span style=&quot;color: #dcdcaa;&quot;&gt;EcuM_AL_DriverInitOne_RDR01&lt;/span&gt;&lt;/div&gt;" style="rounded=1;whiteSpace=wrap;html=1;" vertex="1" parent="1">
          <mxGeometry x="90" y="30" width="220" height="60" as="geometry" />
        </mxCell>
        <mxCell id="vY-BnCAjOBaIAYeel5sk-3" value="Validate_Load_All_Calib_Data&lt;div&gt;(MAX_CALIBRATIONS)&lt;/div&gt;" style="rounded=1;whiteSpace=wrap;html=1;" vertex="1" parent="1">
          <mxGeometry x="90" y="130" width="220" height="70" as="geometry" />
        </mxCell>
        <mxCell id="vY-BnCAjOBaIAYeel5sk-6" value="Validate_Load_Calib_Data(ptp_no)" style="rounded=1;whiteSpace=wrap;html=1;" vertex="1" parent="1">
          <mxGeometry x="90" y="250" width="220" height="60" as="geometry" />
        </mxCell>
        <mxCell id="vY-BnCAjOBaIAYeel5sk-8" value="Read_PTP_From_Flash&lt;div&gt;(section_addr_ptr, section_size, block_size)&lt;/div&gt;" style="rounded=1;whiteSpace=wrap;html=1;" vertex="1" parent="1">
          <mxGeometry x="90" y="370" width="220" height="60" as="geometry" />
        </mxCell>
        <mxCell id="vY-BnCAjOBaIAYeel5sk-10" value="" style="endArrow=classic;html=1;rounded=0;exitX=0.5;exitY=1;exitDx=0;exitDy=0;" edge="1" parent="1" source="vY-BnCAjOBaIAYeel5sk-3" target="vY-BnCAjOBaIAYeel5sk-6">
          <mxGeometry width="50" height="50" relative="1" as="geometry">
            <mxPoint x="400" y="350" as="sourcePoint" />
            <mxPoint x="380" y="360" as="targetPoint" />
          </mxGeometry>
        </mxCell>
        <mxCell id="vY-BnCAjOBaIAYeel5sk-11" value="" style="endArrow=classic;html=1;rounded=0;exitX=0.5;exitY=1;exitDx=0;exitDy=0;entryX=0.5;entryY=0;entryDx=0;entryDy=0;" edge="1" parent="1" source="vY-BnCAjOBaIAYeel5sk-6" target="vY-BnCAjOBaIAYeel5sk-8">
          <mxGeometry width="50" height="50" relative="1" as="geometry">
            <mxPoint x="400" y="350" as="sourcePoint" />
            <mxPoint x="450" y="300" as="targetPoint" />
          </mxGeometry>
        </mxCell>
        <mxCell id="vY-BnCAjOBaIAYeel5sk-12" value="sw_h2_ptr-&amp;gt;section_size == ptp_read_result-&amp;gt;section_hdr.file_size" style="rhombus;whiteSpace=wrap;html=1;" vertex="1" parent="1">
          <mxGeometry x="90" y="470" width="220" height="80" as="geometry" />
        </mxCell>
        <mxCell id="vY-BnCAjOBaIAYeel5sk-13" value="" style="endArrow=classic;html=1;rounded=0;exitX=0.5;exitY=1;exitDx=0;exitDy=0;entryX=0.5;entryY=0;entryDx=0;entryDy=0;" edge="1" parent="1" source="vY-BnCAjOBaIAYeel5sk-8" target="vY-BnCAjOBaIAYeel5sk-12">
          <mxGeometry width="50" height="50" relative="1" as="geometry">
            <mxPoint x="400" y="350" as="sourcePoint" />
            <mxPoint x="450" y="300" as="targetPoint" />
          </mxGeometry>
        </mxCell>
        <mxCell id="vY-BnCAjOBaIAYeel5sk-14" value="&lt;br&gt;ptp_size_err&lt;div&gt;&lt;br&gt;&lt;/div&gt;" style="rounded=1;whiteSpace=wrap;html=1;" vertex="1" parent="1">
          <mxGeometry x="140" y="590" width="120" height="60" as="geometry" />
        </mxCell>
        <mxCell id="vY-BnCAjOBaIAYeel5sk-15" value="" style="endArrow=classic;html=1;rounded=0;exitX=0.5;exitY=1;exitDx=0;exitDy=0;entryX=0.5;entryY=0;entryDx=0;entryDy=0;" edge="1" parent="1" source="vY-BnCAjOBaIAYeel5sk-12" target="vY-BnCAjOBaIAYeel5sk-14">
          <mxGeometry width="50" height="50" relative="1" as="geometry">
            <mxPoint x="400" y="350" as="sourcePoint" />
            <mxPoint x="450" y="300" as="targetPoint" />
          </mxGeometry>
        </mxCell>
        <mxCell id="vY-BnCAjOBaIAYeel5sk-17" value="" style="endArrow=classic;html=1;rounded=0;exitX=1;exitY=0.5;exitDx=0;exitDy=0;entryX=0;entryY=0.5;entryDx=0;entryDy=0;" edge="1" parent="1" source="vY-BnCAjOBaIAYeel5sk-12">
          <mxGeometry width="50" height="50" relative="1" as="geometry">
            <mxPoint x="400" y="350" as="sourcePoint" />
            <mxPoint x="365" y="510" as="targetPoint" />
          </mxGeometry>
        </mxCell>
        <mxCell id="vY-BnCAjOBaIAYeel5sk-18" value="N" style="text;html=1;align=center;verticalAlign=middle;whiteSpace=wrap;rounded=0;" vertex="1" parent="1">
          <mxGeometry x="160" y="550" width="60" height="30" as="geometry" />
        </mxCell>
        <mxCell id="vY-BnCAjOBaIAYeel5sk-19" value="Y" style="text;html=1;align=center;verticalAlign=middle;whiteSpace=wrap;rounded=0;" vertex="1" parent="1">
          <mxGeometry x="305" y="480" width="60" height="30" as="geometry" />
        </mxCell>
        <mxCell id="vY-BnCAjOBaIAYeel5sk-29" style="edgeStyle=orthogonalEdgeStyle;rounded=0;orthogonalLoop=1;jettySize=auto;html=1;exitX=0.5;exitY=0;exitDx=0;exitDy=0;entryX=0.5;entryY=1;entryDx=0;entryDy=0;" edge="1" parent="1" source="vY-BnCAjOBaIAYeel5sk-20" target="vY-BnCAjOBaIAYeel5sk-24">
          <mxGeometry relative="1" as="geometry" />
        </mxCell>
        <mxCell id="vY-BnCAjOBaIAYeel5sk-20" value="Confirm_All_Section_Compatibility" style="rhombus;whiteSpace=wrap;html=1;" vertex="1" parent="1">
          <mxGeometry x="365" y="470" width="185" height="80" as="geometry" />
        </mxCell>
        <mxCell id="vY-BnCAjOBaIAYeel5sk-21" value="&lt;br&gt;ptp_load_err&lt;div&gt;&lt;br&gt;&lt;/div&gt;" style="rounded=1;whiteSpace=wrap;html=1;" vertex="1" parent="1">
          <mxGeometry x="397.5" y="590" width="120" height="60" as="geometry" />
        </mxCell>
        <mxCell id="vY-BnCAjOBaIAYeel5sk-22" value="" style="endArrow=classic;html=1;rounded=0;exitX=0.5;exitY=1;exitDx=0;exitDy=0;entryX=0.5;entryY=0;entryDx=0;entryDy=0;" edge="1" parent="1" source="vY-BnCAjOBaIAYeel5sk-20" target="vY-BnCAjOBaIAYeel5sk-21">
          <mxGeometry width="50" height="50" relative="1" as="geometry">
            <mxPoint x="400" y="360" as="sourcePoint" />
            <mxPoint x="450" y="310" as="targetPoint" />
          </mxGeometry>
        </mxCell>
        <mxCell id="vY-BnCAjOBaIAYeel5sk-23" value="N" style="text;html=1;align=center;verticalAlign=middle;whiteSpace=wrap;rounded=0;" vertex="1" parent="1">
          <mxGeometry x="400" y="550" width="60" height="30" as="geometry" />
        </mxCell>
        <mxCell id="vY-BnCAjOBaIAYeel5sk-24" value="load sub cals from flash" style="rounded=1;whiteSpace=wrap;html=1;" vertex="1" parent="1">
          <mxGeometry x="397" y="340" width="120" height="60" as="geometry" />
        </mxCell>
        <mxCell id="vY-BnCAjOBaIAYeel5sk-30" value="Y" style="text;html=1;align=center;verticalAlign=middle;whiteSpace=wrap;rounded=0;" vertex="1" parent="1">
          <mxGeometry x="450" y="430" width="60" height="30" as="geometry" />
        </mxCell>
        <mxCell id="vY-BnCAjOBaIAYeel5sk-31" value="memcpy&lt;span style=&quot;background-color: transparent; color: light-dark(rgb(0, 0, 0), rgb(255, 255, 255));&quot;&gt;(PSC_cal_attr,flash_attr)&lt;/span&gt;" style="rounded=1;whiteSpace=wrap;html=1;" vertex="1" parent="1">
          <mxGeometry x="342.5" y="260" width="230" height="40" as="geometry" />
        </mxCell>
        <mxCell id="vY-BnCAjOBaIAYeel5sk-32" value="" style="endArrow=classic;html=1;rounded=0;exitX=0.5;exitY=0;exitDx=0;exitDy=0;entryX=0.5;entryY=1;entryDx=0;entryDy=0;" edge="1" parent="1" source="vY-BnCAjOBaIAYeel5sk-24" target="vY-BnCAjOBaIAYeel5sk-31">
          <mxGeometry width="50" height="50" relative="1" as="geometry">
            <mxPoint x="400" y="360" as="sourcePoint" />
            <mxPoint x="457" y="310" as="targetPoint" />
          </mxGeometry>
        </mxCell>
      </root>
    </mxGraphModel>
  </diagram>
</mxfile>
